<svg xmlns="http://www.w3.org/2000/svg" aria-hidden="true" style="position:absolute;width:0;height:0;overflow:hidden">
    <defs>
        <symbol id="house" viewBox="0 0 32 32">
            <path  d="M29.1 9.167H2.9c-.012 0-.02.008-.02.02v3.603c0 2.363 1.96 4.279 4.372 4.279h.019a4.392 4.392 0 0 0 3.774-2.141l.011-.02a.663.663 0 0 1 1.142-.003l.002.003a4.39 4.39 0 0 0 3.779 2.161h.022H16a4.379 4.379 0 0 0 3.804-2.169.648.648 0 0 1 .556-.32h.024a.64.64 0 0 1 .556.32 4.395 4.395 0 0 0 3.787 2.169h.022-.001c2.412 0 4.372-1.917 4.372-4.28V9.186c0-.012-.008-.02-.02-.02z" opacity=".15" />
            <path  d="M30.8 6.326V1.265C30.8.565 30.228 0 29.52 0H2.48C1.772 0 1.2.565 1.2 1.265v5.061A1.27 1.27 0 0 0 0 7.586V12.808c0 1 .212 1.95.594 2.808l-.017-.044c.172.403.384.782.624 1.141v13.632c.005.7.573 1.265 1.273 1.265h27.047c.708 0 1.28-.565 1.28-1.265V16.713a6.99 6.99 0 0 0 1.2-3.923V7.587a1.27 1.27 0 0 0-1.197-1.261h-.003zM4.08 2.845h23.84v3.477H4.08V2.845zm14.48 25.924h-5.12v-4.113h5.12v4.113zm9.376 0H21.12v-5.377a1.271 1.271 0 0 0-1.271-1.265H12.159c-.708 0-1.28.565-1.28 1.265v5.377h-6.8V19.2c.116.055.236.11.36.157a7.172 7.172 0 0 0 2.795.557h.022-.001.012a7.301 7.301 0 0 0 4.372-1.445l-.02.014c.003-.002.008-.003.012-.003s.009.001.012.003a7.19 7.19 0 0 0 1.548.873 7.172 7.172 0 0 0 2.795.557h.022-.001.012a7.301 7.301 0 0 0 4.372-1.445l-.02.014c.003-.002.008-.003.012-.003s.009.001.012.003a7.19 7.19 0 0 0 1.548.873 7.172 7.172 0 0 0 2.795.557h.022-.001a7.29 7.29 0 0 0 2.816-.557c.12-.052.24-.103.36-.159v9.57zM29.12 12.79c0 2.363-1.96 4.279-4.372 4.279h-.021a4.387 4.387 0 0 1-3.776-2.149l-.011-.02a.641.641 0 0 0-.555-.32h-.025a.646.646 0 0 0-.554.317l-.002.003a4.373 4.373 0 0 1-1.585 1.58l-.021.011a4.365 4.365 0 0 1-2.183.578h-.016H16h-.021a4.382 4.382 0 0 1-3.768-2.141l-.011-.02a.663.663 0 0 0-1.142-.003l-.002.003a4.384 4.384 0 0 1-1.588 1.573l-.021.011a4.374 4.374 0 0 1-2.185.577h-.011.001c-2.412 0-4.372-1.917-4.372-4.279V9.187c0-.012.008-.02.02-.02h26.2c.012 0 .02.008.02.02v3.603z"/>
        </symbol>
        <symbol id="list" viewBox="0 0 32 32">
            <path  d="M19.428 9.083h7.998v2.297h-7.998V9.083zm0 5.742h7.998v2.297h-7.998v-2.297zm0 5.742h7.998v2.297h-7.998v-2.297z" />
            <path  d="M29.711 3.341H2.288A2.295 2.295 0 0 0 .003 5.638v20.671c0 .609.241 1.193.67 1.624.413.415.984.672 1.615.673h27.424a2.295 2.295 0 0 0 2.285-2.297V5.638c0-.609-.241-1.193-.67-1.624a2.276 2.276 0 0 0-1.615-.673zM2.288 5.638h12.569v20.671H2.288V5.638zm14.855 20.671V5.638h12.569l.003 20.671H17.144z"/>
        </symbol>
        <symbol id="pack" viewBox="0 0 34 32">
            <path d="M28.129 7.562h-3.061V4.501a2.04 2.04 0 0 0-2.041-2.04H10.784a2.041 2.041 0 0 0-2.041 2.041v3.061H5.682a3.06 3.06 0 0 0-3.061 3.061v14.283c0 1.127.914 2.041 2.041 2.041H29.15a2.041 2.041 0 0 0 2.041-2.041V10.623a3.06 3.06 0 0 0-3.061-3.061zM10.783 4.501h12.243v3.061H10.783V4.501zm18.366 20.406H4.662v-9.183h8.162v5.102h8.163v-5.102h8.162v9.183zm-14.284-9.182h4.082v3.061h-4.082v-3.061zM4.662 13.684v-3.061c0-.564.457-1.02 1.02-1.02h22.447c.564 0 1.02.457 1.02 1.02v3.061H4.661z" />
        </symbol>
    </defs>
</svg>