<!-- Generated by IcoMoon.io -->
<svg version="1.1" xmlns="http://www.w3.org/2000/svg" width="32" height="32" viewBox="0 0 32 32">
<title>house</title>
<path fill="#0d5c63" opacity="0.15" d="M29.1 9.167h-26.2c-0.012 0-0.020 0.008-0.020 0.020v3.603c0 2.363 1.96 4.279 4.372 4.279 0.006 0 0.012 0 0.019 0 1.604 0 3.007-0.859 3.774-2.141l0.011-0.020c0.117-0.198 0.329-0.329 0.572-0.329s0.455 0.131 0.57 0.326l0.002 0.003c0.776 1.302 2.177 2.161 3.779 2.161 0.007 0 0.015-0 0.022-0h-0.001c1.632 0 3.056-0.873 3.804-2.169 0.114-0.192 0.32-0.319 0.556-0.32h0.024c0.232 0 0.44 0.122 0.556 0.32 0.777 1.307 2.181 2.169 3.787 2.169 0.007 0 0.015-0 0.022-0h-0.001c2.412 0 4.372-1.917 4.372-4.28v-3.603c0-0.012-0.008-0.020-0.020-0.020z"></path>
<path fill="#0d5c63" d="M30.8 6.326v-5.061c0-0.7-0.572-1.265-1.28-1.265h-27.040c-0.708 0-1.28 0.565-1.28 1.265v5.061c-0.668 0.040-1.2 0.589-1.2 1.26v5.204c0 0.005-0 0.012-0 0.018 0 1 0.212 1.95 0.594 2.808l-0.017-0.044c0.172 0.403 0.384 0.782 0.624 1.141v13.632c0.005 0.7 0.573 1.265 1.273 1.265 0.002 0 0.005 0 0.007-0h27.040c0.708 0 1.28-0.565 1.28-1.265v-13.632c0.244-0.36 0.453-0.743 0.624-1.141 0.38-0.881 0.576-1.818 0.576-2.782v-5.203c-0.004-0.674-0.532-1.223-1.197-1.261l-0.003-0zM4.080 2.845h23.84v3.477h-23.84v-3.477zM18.56 28.769h-5.12v-4.113h5.12v4.113zM27.936 28.769h-6.816v-5.377c-0.003-0.699-0.571-1.265-1.271-1.265-0.003 0-0.007 0-0.010 0h-7.68c-0.708 0-1.28 0.565-1.28 1.265v5.377h-6.8v-9.569c0.116 0.055 0.236 0.11 0.36 0.157 0.826 0.352 1.786 0.557 2.795 0.557 0.007 0 0.015 0 0.022-0h-0.001c0.003 0 0.007 0 0.012 0 1.638 0 3.151-0.537 4.372-1.445l-0.020 0.014c0.003-0.002 0.008-0.003 0.012-0.003s0.009 0.001 0.012 0.003l-0-0c0.477 0.353 0.997 0.647 1.548 0.873 0.826 0.352 1.786 0.557 2.795 0.557 0.007 0 0.015 0 0.022-0h-0.001c0.003 0 0.007 0 0.012 0 1.638 0 3.151-0.537 4.372-1.445l-0.020 0.014c0.003-0.002 0.008-0.003 0.012-0.003s0.009 0.001 0.012 0.003l-0-0c0.477 0.353 0.997 0.647 1.548 0.873 0.826 0.352 1.786 0.557 2.795 0.557 0.007 0 0.015 0 0.022-0h-0.001c0.976 0 1.92-0.185 2.816-0.557 0.12-0.052 0.24-0.103 0.36-0.159v9.57zM29.12 12.79c0 2.363-1.96 4.279-4.372 4.279-0.006 0-0.013 0-0.021 0-1.606 0-3.011-0.862-3.776-2.149l-0.011-0.020c-0.113-0.193-0.319-0.32-0.555-0.32-0 0-0 0-0.001 0h-0.024c-0.236 0.001-0.442 0.128-0.554 0.317l-0.002 0.003c-0.392 0.666-0.935 1.205-1.585 1.58l-0.021 0.011c-0.627 0.363-1.38 0.578-2.183 0.578-0.005 0-0.011 0-0.016-0h0.001c-0.006 0-0.014 0-0.021 0-1.602 0-3.003-0.859-3.768-2.141l-0.011-0.020c-0.117-0.198-0.329-0.329-0.572-0.329s-0.455 0.131-0.57 0.326l-0.002 0.003c-0.394 0.663-0.938 1.2-1.588 1.573l-0.021 0.011c-0.628 0.363-1.382 0.577-2.185 0.577-0.004 0-0.007 0-0.011 0h0.001c-2.412 0-4.372-1.917-4.372-4.279v-3.603c0-0.012 0.008-0.020 0.020-0.020h26.2c0.012 0 0.020 0.008 0.020 0.020v3.603z"></path>
</svg>
