<!-- Generated by IcoMoon.io -->
<svg version="1.1" xmlns="http://www.w3.org/2000/svg" width="32" height="32" viewBox="0 0 32 32">
<title>list</title>
<path fill="#fff" d="M19.428 9.083h7.998v2.297h-7.998v-2.297zM19.428 14.825h7.998v2.297h-7.998v-2.297zM19.428 20.567h7.998v2.297h-7.998v-2.297z"></path>
<path fill="#fff" d="M29.711 3.341h-27.423c-0.606 0.001-1.187 0.243-1.615 0.673-0.414 0.416-0.67 0.99-0.67 1.624v20.671c0 0.609 0.241 1.193 0.67 1.624 0.413 0.415 0.984 0.672 1.615 0.673h27.424c0.631-0.001 1.203-0.258 1.615-0.673l0-0c0.414-0.416 0.67-0.99 0.67-1.624v-20.671c0-0.609-0.241-1.193-0.67-1.624-0.413-0.415-0.984-0.672-1.615-0.673h-0zM2.288 5.638h12.569v20.671h-12.569v-20.671zM17.143 26.309v-20.671h12.569l0.003 20.671h-12.571z"></path>
</svg>
